<svg aria-hidden="true" style="width:0;height:0;position:absolute;overflow:hidden" xmlns="http://www.w3.org/2000/svg"><defs><symbol id="icon-pinterest" viewBox="0 0 38.4 38.4"><path d="M19.2.768C9.02.768.768 9.02.768 19.2S9.02 37.632 19.2 37.632 37.632 29.38 37.632 19.2 29.38.768 19.2.768zm1.261 22.8c-1.183-.09-1.678-.676-2.604-1.236-.509 2.671-1.131 5.232-2.974 6.57-.57-4.04.833-7.069 1.486-10.289-1.112-1.872.132-5.637 2.479-4.712 2.886 1.144-2.5 6.96 1.116 7.688 3.775.756 5.316-6.551 2.976-8.924-3.383-3.431-9.844-.079-9.049 4.833.192 1.2 1.434 1.565.495 3.222-2.164-.48-2.811-2.187-2.726-4.462.132-3.725 3.347-6.334 6.568-6.693 4.076-.453 7.901 1.496 8.431 5.332.593 4.328-1.841 9.011-6.198 8.673z"/></symbol><symbol id="icon-youtube" viewBox="0 0 38.4 38.4"><path d="m22.278 18.879-4.312-2.012c-.376-.175-.685.021-.685.438v3.79c0 .417.309.612.685.438l4.31-2.012c.378-.177.378-.465.002-.641zM19.2.768C9.02.768.768 9.02.768 19.2S9.02 37.632 19.2 37.632 37.632 29.38 37.632 19.2 29.38.768 19.2.768zm0 25.92c-9.435 0-9.6-.851-9.6-7.488s.165-7.488 9.6-7.488 9.6.851 9.6 7.488-.165 7.488-9.6 7.488z"/></symbol><symbol id="icon-instagram" viewBox="0 0 38.4 38.4"><path d="M24.96 19.2a5.76 5.76 0 0 1-11.52 0c0-.328.035-.649.094-.96H11.52v7.674c0 .534.432.966.966.966h13.43a.966.966 0 0 0 .964-.966V18.24h-2.014c.06.311.094.632.094.96zm-5.76 3.84a3.84 3.84 0 1 0 0-7.68h-.001a3.84 3.84 0 1 0 0 7.68h.001zm4.608-7.872h2.302a.579.579 0 0 0 .578-.576V12.29a.578.578 0 0 0-.578-.578h-2.302a.578.578 0 0 0-.578.578v2.302a.58.58 0 0 0 .578.576zM19.2.768C9.02.768.768 9.02.768 19.2S9.02 37.632 19.2 37.632c10.18 0 18.432-8.252 18.432-18.432S29.38.768 19.2.768zm9.6 25.899a2.14 2.14 0 0 1-2.133 2.133H11.733A2.14 2.14 0 0 1 9.6 26.667V11.733A2.14 2.14 0 0 1 11.733 9.6h14.934a2.14 2.14 0 0 1 2.133 2.133v14.934z"/></symbol><symbol id="icon-twitter" viewBox="0 0 38.4 38.4"><path d="M19.2.768C9.02.768.768 9.02.768 19.2S9.02 37.632 19.2 37.632 37.632 29.38 37.632 19.2 29.38.768 19.2.768zm7.498 15.099c.008.157.01.315.01.468 0 4.8-3.65 10.332-10.328 10.332h-.017c-2.061 0-3.98-.609-5.587-1.656l.039.024c.282.035.572.048.866.048h.016a7.24 7.24 0 0 0 4.507-1.565l-.015.012a3.64 3.64 0 0 1-3.383-2.493l-.007-.026a3.655 3.655 0 0 0 1.663-.07l-.026.006a3.64 3.64 0 0 1-2.913-3.56v-.044c.49.271 1.05.436 1.645.455a3.631 3.631 0 0 1-1.114-4.867l-.009.017a10.313 10.313 0 0 0 7.457 3.795l.026.001a3.631 3.631 0 0 1 6.184-3.315l.002.002a7.263 7.263 0 0 0 2.337-.9l-.033.018a3.667 3.667 0 0 1-1.579 2.001l-.016.009a7.253 7.253 0 0 0 2.131-.593l-.046.019a7.413 7.413 0 0 1-1.79 1.865l-.021.015z"/></symbol><symbol id="icon-facebook" viewBox="0 0 38 38.4"><path d="M19.2.768C9.02.768.768 9.02.768 19.2S9.02 37.632 19.2 37.632 37.632 29.38 37.632 19.2 29.38.768 19.2.768zm4.366 12.737h-2.771c-.328 0-.693.432-.693 1.006v2.001h3.466l-.524 2.853h-2.941v8.565h-3.27v-8.565h-2.966v-2.853h2.966v-1.678c0-2.408 1.67-4.364 3.963-4.364h2.771v3.036z"/></symbol></defs></svg>