<svg aria-hidden="true" style="position: absolute; width: 0; height: 0; overflow: hidden;" version="1.1" xmlns="http://www.w3.org/2000/svg" xmlns:xlink="http://www.w3.org/1999/xlink">
<defs>
<symbol id="icon-pinterest" viewBox="0 0 38.4 38.4">
<path d="M19.2 0.768c-10.18 0-18.432 8.252-18.432 18.432s8.252 18.432 18.432 18.432 18.432-8.252 18.432-18.432-8.252-18.432-18.432-18.432zM20.461 23.568c-1.183-0.090-1.678-0.676-2.604-1.236-0.509 2.671-1.131 5.232-2.974 6.57-0.57-4.040 0.833-7.069 1.486-10.289-1.112-1.872 0.132-5.637 2.479-4.712 2.886 1.144-2.5 6.96 1.116 7.688 3.775 0.756 5.316-6.551 2.976-8.924-3.383-3.431-9.844-0.079-9.049 4.833 0.192 1.2 1.434 1.565 0.495 3.222-2.164-0.48-2.811-2.187-2.726-4.462 0.132-3.725 3.347-6.334 6.568-6.693 4.076-0.453 7.901 1.496 8.431 5.332 0.593 4.328-1.841 9.011-6.198 8.673z"></path>
</symbol>
<symbol id="icon-youtube" viewBox="0 0 38.4 38.4">
<path d="M22.278 18.879l-4.312-2.012c-0.376-0.175-0.685 0.021-0.685 0.438v3.79c0 0.417 0.309 0.612 0.685 0.438l4.31-2.012c0.378-0.177 0.378-0.465 0.002-0.641zM19.2 0.768c-10.18 0-18.432 8.252-18.432 18.432s8.252 18.432 18.432 18.432 18.432-8.252 18.432-18.432-8.252-18.432-18.432-18.432zM19.2 26.688c-9.435 0-9.6-0.851-9.6-7.488s0.165-7.488 9.6-7.488 9.6 0.851 9.6 7.488-0.165 7.488-9.6 7.488z"></path>
</symbol>
<symbol id="icon-instagram" viewBox="0 0 38.4 38.4">
<path d="M24.96 19.2c0 3.181-2.579 5.76-5.76 5.76s-5.76-2.579-5.76-5.76v0c0-0.328 0.035-0.649 0.094-0.96h-2.014v7.674c0 0.534 0.432 0.966 0.966 0.966h13.43c0.533-0.001 0.964-0.433 0.964-0.966 0 0 0 0 0 0v0-7.674h-2.014c0.060 0.311 0.094 0.632 0.094 0.96zM19.2 23.040c2.121-0 3.84-1.719 3.84-3.84s-1.719-3.84-3.84-3.84c-0 0-0 0-0.001 0h0c-2.121 0-3.84 1.719-3.84 3.84s1.719 3.84 3.84 3.84c0 0 0 0 0.001 0h-0zM23.808 15.168h2.302c0 0 0 0 0 0 0.318 0 0.577-0.258 0.578-0.576v-2.302c0-0.319-0.259-0.578-0.578-0.578h-2.302c-0.319 0-0.578 0.259-0.578 0.578v0 2.302c0.002 0.317 0.261 0.576 0.578 0.576zM19.2 0.768c-10.18 0-18.432 8.252-18.432 18.432s8.252 18.432 18.432 18.432v0c10.18 0 18.432-8.252 18.432-18.432s-8.252-18.432-18.432-18.432v0zM28.8 26.667c0 1.173-0.96 2.133-2.133 2.133h-14.934c-1.173 0-2.133-0.96-2.133-2.133v-14.934c0-1.173 0.96-2.133 2.133-2.133h14.934c1.173 0 2.133 0.96 2.133 2.133v14.934z"></path>
</symbol>
<symbol id="icon-twitter" viewBox="0 0 38.4 38.4">
<path d="M19.2 0.768c-10.18 0-18.432 8.252-18.432 18.432s8.252 18.432 18.432 18.432 18.432-8.252 18.432-18.432-8.252-18.432-18.432-18.432zM26.698 15.867c0.008 0.157 0.010 0.315 0.010 0.468 0 4.8-3.65 10.332-10.328 10.332-0.005 0-0.011 0-0.017 0-2.061 0-3.98-0.609-5.587-1.656l0.039 0.024c0.282 0.035 0.572 0.048 0.866 0.048 0.005 0 0.011 0 0.016 0 1.702 0 3.268-0.585 4.507-1.565l-0.015 0.012c-1.581-0.032-2.911-1.067-3.383-2.493l-0.007-0.026c0.205 0.041 0.44 0.064 0.681 0.064 0.34 0 0.67-0.047 0.982-0.134l-0.026 0.006c-1.673-0.347-2.912-1.809-2.913-3.56v-0.044c0.49 0.271 1.050 0.436 1.645 0.455-0.981-0.66-1.618-1.766-1.618-3.021 0-0.674 0.184-1.305 0.504-1.846l-0.009 0.017c1.799 2.2 4.458 3.637 7.457 3.795l0.026 0.001c-0.061-0.25-0.097-0.537-0.097-0.833 0-2.005 1.626-3.631 3.631-3.631 1.046 0 1.988 0.442 2.65 1.149l0.002 0.002c0.869-0.175 1.641-0.481 2.337-0.9l-0.033 0.018c-0.281 0.856-0.845 1.555-1.579 2.001l-0.016 0.009c0.774-0.095 1.478-0.297 2.131-0.593l-0.046 0.019c-0.496 0.737-1.097 1.36-1.79 1.865l-0.021 0.015z"></path>
</symbol>
<symbol id="icon-facebook" viewBox="0 0 38 38.4">
<path d="M19.2 0.768c-10.18 0-18.432 8.252-18.432 18.432s8.252 18.432 18.432 18.432 18.432-8.252 18.432-18.432-8.252-18.432-18.432-18.432zM23.566 13.505h-2.771c-0.328 0-0.693 0.432-0.693 1.006v2.001h3.466l-0.524 2.853h-2.941v8.565h-3.27v-8.565h-2.966v-2.853h2.966v-1.678c0-2.408 1.67-4.364 3.963-4.364h2.771v3.036z"></path>
</symbol>
</defs>
</svg>
