<svg xmlns="http://www.w3.org/2000/svg" width="32" height="32"><path d="M20.8 16a4.8 4.8 0 0 1-9.6 0c0-.274.029-.541.078-.8H9.6v6.395c0 .445.36.805.805.805h11.192a.803.803 0 0 0 .803-.804v-6.395h-1.678c.05.259.078.526.078.8zM16 19.2a3.199 3.199 0 0 0 2.956-4.427 3.207 3.207 0 0 0-2.958-1.975A3.201 3.201 0 1 0 16 19.2zm3.84-6.56h1.918a.481.481 0 0 0 .482-.48v-1.918a.485.485 0 0 0-.482-.482H19.84a.485.485 0 0 0-.482.482v1.918c.002.264.218.48.482.48zM16 .64A15.356 15.356 0 0 0 .64 16 15.356 15.356 0 0 0 16 31.36 15.36 15.36 0 1 0 16 .64zm8 21.582C24 23.2 23.2 24 22.222 24H9.777c-.978 0-1.778-.8-1.778-1.778V9.777c0-.978.8-1.778 1.778-1.778h12.445c.978 0 1.778.8 1.778 1.778v12.445z"/></svg>