<svg xmlns="http://www.w3.org/2000/svg" width="32" height="32"><path d="M16 .64C7.517.64.64 7.517.64 16S7.517 31.36 16 31.36 31.36 24.483 31.36 16 24.483.64 16 .64zm1.051 19c-.986-.075-1.398-.563-2.17-1.03-.424 2.226-.942 4.36-2.478 5.475-.475-3.366.694-5.891 1.238-8.574-.926-1.56.11-4.698 2.066-3.926 2.405.954-2.083 5.8.93 6.406 3.146.63 4.43-5.459 2.48-7.437-2.819-2.859-8.203-.066-7.541 4.027.16 1 1.195 1.304.413 2.685-1.803-.4-2.342-1.822-2.272-3.718.11-3.104 2.789-5.278 5.474-5.578 3.397-.378 6.584 1.246 7.026 4.443.494 3.606-1.534 7.509-5.165 7.227z"/></svg>